<svg width="22" height="22" viewBox="0 0 22 22" fill="none" xmlns="http://www.w3.org/2000/svg">
<path d="M21 11H1M21 11C21 13.2512 20.2561 15.3287 19.0007 17M21 11C21 8.74879 20.2561 6.67132 19.0007 5M11 21C11 21 6 17 6 11C6 5 11 1 11 1M11 21C11 21 16 17 16 11C16 5 11 1 11 1M11 21C11 21 11 17.3431 11 15M11 21C7.72836 21 4.82368 19.4289 2.99927 17M11 21C14.2716 21 17.1763 19.4289 19.0007 17M1 11C1 13.2512 1.74389 15.3287 2.99927 17M1 11C1 8.74879 1.74389 6.67132 2.99927 5M11 1C11 1 11 9.53266 11 15M11 1C14.2716 1 17.1763 2.57111 19.0007 5M11 1C7.72836 1 4.82368 2.57111 2.99927 5M11 15C5 15 2.99927 17 2.99927 17M11 15C17 15 19.0007 17 19.0007 17M19.0007 5C19.0007 5 17 7 11 7C5 7 2.99927 5 2.99927 5" stroke="white"/>
</svg>
