<svg width="32" height="32" viewBox="0 0 32 32" fill="none" xmlns="http://www.w3.org/2000/svg">
<path fill-rule="evenodd" clip-rule="evenodd" d="M16 32C24.8366 32 32 24.8366 32 16C32 7.16344 24.8366 0 16 0C7.16344 0 0 7.16344 0 16C0 24.8366 7.16344 32 16 32ZM17.6146 19.2641L18.4219 7H13.5781L14.3854 19.2641H17.6146ZM14.2031 25.3023C14.6892 25.7674 15.2882 26 16 26C16.7118 26 17.3021 25.7674 17.7708 25.3023C18.2569 24.8192 18.5 24.2378 18.5 23.5579C18.5 22.8781 18.2656 22.3145 17.7969 21.8672C17.3281 21.4021 16.7292 21.1695 16 21.1695C15.2708 21.1695 14.6719 21.4021 14.2031 21.8672C13.7344 22.3145 13.5 22.8781 13.5 23.5579C13.5 24.2378 13.7344 24.8192 14.2031 25.3023Z" fill="#EF1616"/>
</svg>
