<svg width="80" height="80" viewBox="0 0 80 80" fill="none" xmlns="http://www.w3.org/2000/svg">
<path d="M65.826 15.2979V16.1181H65.4238V15.5226L65.826 15.2979Z" fill="#F5A621"/>
<path d="M15.0032 15.7583V16.5898H14.2793V15.3426L15.0032 15.7583Z" fill="#F5A621"/>
<path d="M74.3622 25.9831V57.2754H74.3507C74.2588 58.5002 73.3051 59.7811 71.5241 60.7811L46.222 75.0621C44.5559 76.0059 42.4647 76.5452 40.4079 76.6464C38.2477 76.7587 36.1449 76.3992 34.6167 75.534L7.64851 60.3092C6.22369 59.5002 5.56874 58.4103 5.64917 57.2754V25.9831H74.3622Z" fill="#2B3B4E"/>
<path d="M40.4079 30.6016V62.0625C38.2477 62.1749 36.145 61.8153 34.6167 60.9501L7.64859 43.5905C6.36165 42.8601 5.7067 41.9051 5.64924 40.8938C5.63775 40.7815 5.63775 40.6691 5.64924 40.5567V25.5566L40.4079 30.6016Z" fill="#2B3B4E"/>
<path d="M74.3626 25.9831V57.2754H74.3511C74.2591 58.5002 73.3054 59.7811 71.5244 60.7811L46.2224 75.0621C44.5563 76.0059 42.465 76.5452 40.4082 76.6464V30.6011L51.4735 25.9831H74.3626Z" fill="#2B3B4E"/>
<path d="M25.5391 70.6355L25.7574 70.5344V50.3882H25.5391V70.6355Z" fill="#F5A621"/>
<path d="M25.5401 51.1525V70.6358L17.3359 66.0066V46.512L25.5401 51.1525Z" fill="#F5A621"/>
<path d="M17.3359 49.8267L25.5401 55.1076V51.1525L17.3359 46.512V49.8267Z" fill="#F5A621"/>
<path d="M54.3589 70.6917L54.1406 70.5906V51.2197L54.3589 50.9725V70.6917Z" fill="#F5A621"/>
<path d="M54.3574 51.2201V70.6921L62.5616 66.0629V46.5796L54.3574 51.2201Z" fill="#F5A621"/>
<path d="M79.1665 25.59V35.0283H79.155C79.0516 36.4328 77.96 37.8822 75.9262 39.0283L47.0851 55.3093C45.2466 56.3543 42.9485 56.9498 40.6964 57.0959C38.157 57.2644 35.6521 56.8599 33.8596 55.8374L3.12254 38.5002C1.49089 37.5789 0.744014 36.3317 0.847428 35.0395L0.835938 25.59H13.7053H79.1665Z" fill="#2B3B4E"/>
<path d="M79.1654 25.5896V35.0279H79.1539C79.0505 36.4324 77.9589 37.8818 75.9251 39.0279L47.084 55.3089C45.2455 56.3539 42.9474 56.9494 40.6953 57.0955V26.3424L59.5397 21.7806L66.2961 25.5896H79.1654Z" fill="#2B3B4E"/>
<path d="M33.8705 46.2757L3.12196 28.916C-0.267726 27.0059 0.157422 23.6575 4.07567 21.444L32.9168 5.16301C36.835 2.94951 42.7526 2.71355 46.1423 4.62368L76.8793 21.9946C80.269 23.9047 79.8439 27.2531 75.9256 29.4666L47.0845 45.7476C43.1778 47.9498 37.2602 48.1858 33.8705 46.2757Z" fill="#2B3B4E"/>
<path d="M57.5984 39.8149V40.0283L14.2793 15.5675V15.354L57.5984 39.8149Z" fill="#F5A621"/>
<path d="M22.4149 39.8032L14.1992 35.1739L57.6217 10.6681L65.8259 15.2974L22.4149 39.8032Z" fill="#FEE0AE"/>
<path d="M22.4149 39.8034V49.6012L14.1992 44.972V35.1742L22.4149 39.8034Z" fill="#F5A621"/>
<path d="M57.5979 49.6017L57.4141 49.5005V39.9162L57.5979 40.0285V49.6017Z" fill="#F5A621"/>
<path d="M65.8019 35.1742L57.5977 39.8034V49.6012L65.8019 44.972V35.1742Z" fill="#F5A621"/>
<path d="M63.366 24.939C56.0121 23.2761 43.3611 23.2423 36.5702 23.13C29.7909 23.0176 16.9215 22.6019 11.3257 24.0401C9.14247 24.5907 5.93663 25.6918 8.3841 30.557H8.36112L9.4642 32.5008L11.7853 33.8155C12.3138 32.2424 14.0949 31.6806 15.4622 31.3323C18.9438 30.4446 25.2406 30.2649 31.1352 30.2761C28.2282 33.7593 24.7006 37.411 22.0348 38.411C21.6326 38.5683 21.0696 38.6694 20.4031 38.6807L29.3083 43.7144C34.4905 39.4447 40.5919 30.5907 40.7068 30.4334C40.9251 30.557 49.3477 35.3211 57.8506 39.6807L62.8605 36.8492C59.0801 35.1413 54.5413 32.8379 50.3014 30.6132C56.2879 30.8042 62.9179 31.1975 67.4911 32.2312C68.2035 32.3885 69.0308 32.5907 69.9041 32.8716L73.3168 30.9503C70.2718 26.6806 66.0663 25.5457 63.366 24.939Z" fill="url(#paint0_linear)"/>
<path d="M65.8268 15.2979V15.5113L22.5996 39.916V39.7025L65.8268 15.2979Z" fill="#F5A621"/>
<path d="M14.2793 15.3543L22.4835 10.7251L65.8026 35.1747L57.5984 39.804L14.2793 15.3543Z" fill="#FEE0AE"/>
<path d="M22.5979 39.703L22.4141 39.8153V49.6019L22.5979 49.5008V39.703Z" fill="#F5A621"/>
<path d="M40.0417 30.0957C33.2624 30.0957 20.4964 30.3092 14.0158 28.5452C11.2007 27.7811 6.69638 26.2081 7.35134 18.8035C7.45476 17.6687 7.69606 16.7024 8.05226 15.8822C9.36217 18.7811 12.0854 19.6799 14.0158 20.208C18.049 21.3092 24.5066 21.6463 30.4472 21.7361C35.6409 26.0395 40.0417 30.0957 40.0417 30.0957Z" fill="url(#paint1_linear)"/>
<path d="M40.0447 21.77C39.7804 21.534 23.2686 6.30921 16.6156 3.84852C14.0188 2.89346 7.9863 3.48897 7.36582 10.4778C7.31986 10.9497 7.29688 11.3879 7.29688 11.8149V20.961L7.31986 20.9722C7.28538 20.3093 7.29687 19.5902 7.36582 18.8149C7.46923 17.6801 7.71053 16.7138 8.06674 15.8936C9.85925 11.6688 14.4439 11.3767 16.6271 12.1744C19.8904 13.3879 25.5437 17.6688 30.4732 21.7475C35.6669 26.0397 40.0677 30.0959 40.0677 30.0959L40.0447 21.77Z" fill="url(#paint2_linear)"/>
<path d="M40.041 30.0957C46.8204 30.0957 59.5863 30.3092 66.0669 28.5452C68.8821 27.7811 73.3864 26.2081 72.7314 18.8035C72.628 17.6687 72.3867 16.7024 72.0305 15.8822C70.7206 18.7811 67.9973 19.6799 66.0669 20.208C62.0338 21.3092 55.5761 21.6463 49.6356 21.7361C44.4419 26.0395 40.041 30.0957 40.041 30.0957Z" fill="url(#paint3_linear)"/>
<path d="M40.0425 21.77C40.3068 21.534 56.8186 6.30921 63.4716 3.84852C66.0684 2.89346 72.1009 3.48897 72.7214 10.4778C72.7674 10.9497 72.7789 11.3879 72.7904 11.8149V20.961L72.7674 20.9722C72.8019 20.3093 72.7904 19.5902 72.7214 18.8149C72.618 17.6801 72.3767 16.7138 72.0205 15.8936C70.228 11.6688 65.6433 11.3767 63.4601 12.1744C60.1968 13.3879 54.5435 17.6688 49.6141 21.7475C44.4204 26.0397 40.0195 30.0959 40.0195 30.0959L40.0425 21.77Z" fill="url(#paint4_linear)"/>
<defs>
<linearGradient id="paint0_linear" x1="40.644" y1="23.3984" x2="39.792" y2="45.4306" gradientUnits="userSpaceOnUse">
<stop stop-color="#2B3B4E" stop-opacity="0.5"/>
<stop offset="1" stop-color="#2B3B4E" stop-opacity="0"/>
</linearGradient>
<linearGradient id="paint1_linear" x1="7.28837" y1="22.9978" x2="40.0404" y2="22.9978" gradientUnits="userSpaceOnUse">
<stop offset="0.00200401" stop-color="#F5A621"/>
<stop offset="1" stop-color="#FFE9C3"/>
</linearGradient>
<linearGradient id="paint2_linear" x1="7.29308" y1="16.7945" x2="40.046" y2="16.7945" gradientUnits="userSpaceOnUse">
<stop stop-color="#FDDBA1"/>
<stop offset="1" stop-color="#F5A621"/>
</linearGradient>
<linearGradient id="paint3_linear" x1="40.0423" y1="22.9978" x2="72.7943" y2="22.9978" gradientUnits="userSpaceOnUse">
<stop offset="0.00200401" stop-color="#F5A621"/>
<stop offset="1" stop-color="#FFE9C3"/>
</linearGradient>
<linearGradient id="paint4_linear" x1="40.0157" y1="16.7945" x2="72.7686" y2="16.7945" gradientUnits="userSpaceOnUse">
<stop stop-color="#FDDBA1"/>
<stop offset="1" stop-color="#F5A621"/>
</linearGradient>
</defs>
</svg>
